<svg xmlns="http://www.w3.org/2000/svg" aria-hidden="true" style="position:absolute;width:0;height:0;overflow:hidden"><defs>
<symbol id="arrow" viewBox="0 0 32 32"><path d="M16.947 17.867a1.334 1.334 0 0 1-1.894 0l-6.107-6.12a1.334 1.334 0 1 0-1.894 1.88l6.12 6.12a4.001 4.001 0 0 0 5.654 0l6.12-6.12a1.337 1.337 0 0 0-.434-2.172 1.331 1.331 0 0 0-1.46.292l-6.107 6.12z"/></symbol>
<symbol id="chocolate" viewBox="0 0 32 32"><path fill="#fcf1e0" d="M3.944 20.076 14.721 2.652l.64-.674 8.236 5.491.056 3.314 2.01 3.28-8.88 14.077-12.839-8.063z" style="fill:var(--color2, #fcf1e0)"/><path fill="none" stroke="#fd9222" stroke-linecap="round" stroke-linejoin="round" stroke-width="2.667" d="M21.635 23.88 7.45 15.016m3.911-6.417 14.185 8.864M10.63 25.864l11.736-19.25m4.81 8.175c-3.04-1.899-4.234-3.384-2.278-6.592l-9.626-6.015-11.736 19.25 14.186 8.864 9.454-15.507z" style="stroke:var(--color1, #fd9222)"/></symbol>
<symbol id="chocolate-bar" viewBox="0 0 32 32"><path d="m13.597.456 8.306 8.316.088-.088a.948.948 0 0 1 1.306-.015l.963.963c.337.337.348.85.092 1.207l-.004.008-.158.212 6.797 6.797a1.539 1.539 0 0 1 0 2.185L20.581 30.447a1.539 1.539 0 0 1-2.185 0l-4.907-4.907a.918.918 0 0 1-.675.35.93.93 0 0 1-.71-.272l-2.869-2.869a.948.948 0 0 1-.015-1.306l.007-.008.085-.084-8.306-8.306a1.539 1.539 0 0 1 0-2.185L11.411.455a1.539 1.539 0 0 1 2.185 0v.001zm7.263 9.357-1.938-1.937a.655.655 0 0 0-.938 0l-3.95 3.95a.664.664 0 0 0-.146.731.68.68 0 0 0 .146.217l1.93 1.93.673-.673-1.727-1.727 3.542-3.553 1.731 1.737.676-.676zm-5.602 5.597-1.935-1.935a.655.655 0 0 0-.938 0l-3.961 3.961a.653.653 0 0 0 0 .938l1.933 1.933.68-.68-1.732-1.726 3.553-3.542 1.726 1.725.675-.674zM8.079 6.834l3.95 3.95a.644.644 0 0 0 .938-.011l3.95-3.95a.643.643 0 0 0 .199-.463h.011a.674.674 0 0 0-.199-.474l-3.95-3.95a.667.667 0 0 0-.948 0L8.08 5.897a.653.653 0 0 0 0 .938zm-5.594 5.594 3.95 3.95a.653.653 0 0 0 .938 0l3.95-3.95a.643.643 0 0 0 .199-.474h.011a.655.655 0 0 0-.199-.474l-3.95-3.95a.655.655 0 0 0-.938 0l-3.961 3.961a.653.653 0 0 0 0 .938zm7.65 9.66 2.606 2.607 10.633-14.389-.723-.723-12.516 12.504z" style="fill:var(--color3, #000)"/><path fill="#fd9222" d="m13.597.456 8.306 8.316.088-.088a.948.948 0 0 1 1.306-.015l.963.963c.337.337.348.85.092 1.207l-.004.008-.158.212 6.797 6.797a1.539 1.539 0 0 1 0 2.185L20.581 30.447a1.539 1.539 0 0 1-2.185 0l-4.907-4.907a.918.918 0 0 1-.675.35.93.93 0 0 1-.71-.272l-2.869-2.869a.948.948 0 0 1-.015-1.306l.007-.008.085-.084-8.306-8.306a1.539 1.539 0 0 1 0-2.185L11.411.455a1.539 1.539 0 0 1 2.185 0v.001zm7.263 9.357-1.938-1.937a.655.655 0 0 0-.938 0l-3.95 3.95a.664.664 0 0 0-.146.731.68.68 0 0 0 .146.217l1.93 1.93.673-.673-1.727-1.727 3.542-3.553 1.731 1.737.676-.676zm-5.602 5.597-1.935-1.935a.655.655 0 0 0-.938 0l-3.961 3.961a.653.653 0 0 0 0 .938l1.933 1.933.68-.68-1.732-1.726 3.553-3.542 1.726 1.725.675-.674zM8.079 6.834l3.95 3.95a.644.644 0 0 0 .938-.011l3.95-3.95a.643.643 0 0 0 .199-.463h.011a.674.674 0 0 0-.199-.474l-3.95-3.95a.667.667 0 0 0-.948 0L8.08 5.897a.653.653 0 0 0 0 .938zm-5.594 5.594 3.95 3.95a.653.653 0 0 0 .938 0l3.95-3.95a.643.643 0 0 0 .199-.474h.011a.655.655 0 0 0-.199-.474l-3.95-3.95a.655.655 0 0 0-.938 0l-3.961 3.961a.653.653 0 0 0 0 .938zm7.65 9.66 2.606 2.607 10.633-14.389-.723-.723-12.516 12.504z" style="fill:var(--color1, #fd9222)"/></symbol>
<symbol id="spoon" viewBox="0 0 32 32">
<path fill="#fd9222" style="fill: var(--color1, #fd9222)" d="M15.452 14.106c-0.783-0.95-1.177-2.116-1.177-3.282 0-4.324 5.181-8.642 10.362-8.642 2.86 0 5.181 2.321 5.181 5.182 0 5.182-4.318 10.364-8.646 10.364-1.166 0-2.332-0.394-3.281-1.177l-12.758 12.761c-0.675 0.675-1.77 0.675-2.445 0s-0.675-1.771 0-2.445l12.764-12.761z"></path>
</symbol>
<symbol id="oin" viewBox="0 0 32 32"><path fill="#fd9222" d="M16 2.667c-7.333 0-13.333 6-13.333 13.333s6 13.333 13.333 13.333 13.333-6 13.333-13.333S23.333 2.667 16 2.667zm0 24c-5.867 0-10.667-4.8-10.667-10.667S10.133 5.333 16 5.333 26.667 10.133 26.667 16 21.867 26.667 16 26.667z" style="fill:var(--color1, #fd9222)"/><path fill="#fd9222" d="M17.733 14.667h-3.467c-.667 0-1.2-.533-1.2-1.2s.533-1.2 1.2-1.2h4.933c.8 0 1.333-.533 1.333-1.333s-.533-1.333-1.333-1.333h-1.867v-1.2c0-.8-.533-1.333-1.333-1.333s-1.333.533-1.333 1.333v1.2h-.4c-2.133 0-3.867 1.733-3.867 3.867s1.733 3.867 3.867 3.867h3.333c.667 0 1.2.533 1.2 1.2s-.533 1.2-1.2 1.2h-4.933c-.8 0-1.333.533-1.333 1.333s.533 1.333 1.333 1.333h2v1.2c0 .8.533 1.333 1.333 1.333s1.333-.533 1.333-1.333v-1.2h.4c2.133 0 3.867-1.733 3.867-3.867s-1.733-3.867-3.867-3.867z" style="fill:var(--color1, #fd9222)"/></symbol>

<symbol id="instagram" viewBox="0 0 32 32">
<path d="M16.096 9.28c-3.712 0-6.752 3.040-6.752 6.752s3.040 6.752 6.752 6.752c3.712 0 6.72-3.040 6.72-6.752s-3.040-6.752-6.72-6.752zM16.096 21.184c-2.848 0-5.152-2.304-5.152-5.152s2.304-5.152 5.152-5.152c2.816 0 5.12 2.304 5.12 5.152s-2.304 5.152-5.12 5.152z"></path>
<path d="M23.616 5.472c-0.704 0-1.344 0.256-1.824 0.736s-0.736 1.12-0.736 1.824c0 0.704 0.256 1.344 0.736 1.824s1.12 0.736 1.824 0.736 1.344-0.256 1.824-0.736v0c0.448-0.448 0.736-1.088 0.768-1.792v-0.032c0-0.672-0.288-1.312-0.736-1.76-0.48-0.512-1.152-0.8-1.856-0.8zM24.288 8.704c-0.352 0.352-1.024 0.352-1.376 0-0.192-0.192-0.288-0.416-0.288-0.672s0.096-0.512 0.288-0.672c0.192-0.192 0.416-0.288 0.672-0.288s0.512 0.096 0.704 0.288c0.16 0.16 0.288 0.416 0.288 0.64 0 0.288-0.096 0.544-0.288 0.704z"></path>
<path d="M21.696 2.24h-11.232c-4.512 0-8.16 3.648-8.16 8.16v11.264c0 4.512 3.648 8.16 8.16 8.16h11.264c4.512 0 8.16-3.648 8.16-8.16v-11.264c-0.032-4.512-3.68-8.16-8.192-8.16zM28.256 21.664c0 3.616-2.944 6.56-6.56 6.56h-11.232c-3.616 0-6.56-2.944-6.56-6.56v-11.264c0-3.616 2.944-6.56 6.56-6.56h11.264c3.616 0 6.56 2.944 6.56 6.56v11.264z"></path>
</symbol>

<symbol id="twitter" viewBox="0 0 32 32">
<path d="M10.33 29.136c-3.556 0-7.015-1.013-10.002-2.931-0.279-0.179-0.397-0.526-0.286-0.839s0.428-0.512 0.754-0.465c2.505 0.292 5.12-0.218 7.314-1.472-2.169-0.652-3.933-2.332-4.646-4.559-0.077-0.24-0.021-0.502 0.147-0.69 0.102-0.114 0.238-0.191 0.384-0.222-1.694-1.29-2.764-3.328-2.764-5.565 0-0.252 0.134-0.524 0.351-0.652s0.487-0.168 0.706-0.048c0.063 0.036 0.127 0.070 0.191 0.101-0.77-1.137-1.196-2.497-1.196-3.916 0-1.232 0.326-2.447 0.946-3.511 0.117-0.202 0.326-0.333 0.559-0.351 0.232-0.017 0.458 0.080 0.606 0.259 2.878 3.529 7.043 5.767 11.536 6.227-0.020-0.215-0.030-0.434-0.030-0.65 0-3.851 3.134-6.985 6.985-6.985 1.788 0 3.52 0.693 4.811 1.916 1.188-0.272 2.326-0.728 3.389-1.359 0.255-0.148 0.573-0.127 0.805 0.055 0.23 0.185 0.324 0.492 0.235 0.774-0.226 0.707-0.562 1.369-0.993 1.962 0.296-0.102 0.586-0.218 0.872-0.344 0.286-0.131 0.629-0.051 0.832 0.193 0.203 0.242 0.222 0.59 0.047 0.854-0.827 1.232-1.834 2.306-2.996 3.198 0.004 0.154 0.006 0.309 0.006 0.462 0 9.122-6.944 18.559-18.561 18.559zM3.601 26.336c2.115 0.906 4.399 1.377 6.729 1.377 10.728 0 17.138-8.713 17.138-17.138 0-0.26-0.007-0.522-0.017-0.782-0.010-0.239 0.101-0.467 0.294-0.606 0.512-0.37 0.993-0.778 1.438-1.222-0.464 0.107-0.935 0.189-1.411 0.246-0.33 0.047-0.649-0.156-0.758-0.475-0.108-0.317 0.020-0.667 0.307-0.841 0.565-0.339 1.060-0.771 1.467-1.27-0.71 0.272-1.441 0.484-2.188 0.629-0.239 0.050-0.488-0.030-0.656-0.21-1.047-1.115-2.528-1.755-4.062-1.755-3.067 0-5.562 2.495-5.562 5.562 0 0.425 0.048 0.854 0.145 1.269 0.050 0.216-0.004 0.445-0.148 0.617-0.142 0.171-0.357 0.289-0.58 0.253-4.855-0.245-9.429-2.403-12.715-5.971-0.211 0.595-0.319 1.223-0.319 1.858 0 1.866 0.925 3.595 2.472 4.629 0.265 0.176 0.38 0.505 0.283 0.808-0.097 0.302-0.397 0.484-0.698 0.495-0.679-0.021-1.353-0.142-1.996-0.358 0.44 2.204 2.134 3.951 4.348 4.396 0.324 0.065 0.56 0.343 0.57 0.673 0.011 0.329-0.205 0.623-0.522 0.711-0.613 0.166-1.258 0.26-1.888 0.248 0.953 1.686 2.743 2.783 4.74 2.822 0.3 0.006 0.565 0.202 0.66 0.487s0 0.6-0.236 0.785c-1.999 1.566-4.34 2.508-6.836 2.764z"></path>
</symbol>

<symbol id="play" viewBox="0 0 32 32">
<path fill="#f5f4f4" style="fill: var(--color1, #f5f4f4)" d="M10.909 24v-15.273l14.545 7.636-14.545 7.636z"></path>
<path fill="none" stroke="#fff" style="stroke: var(--color2, #fff)" stroke-linejoin="miter" stroke-linecap="butt" stroke-miterlimit="4" stroke-width="0.7273" d="M31.636 16c0 8.636-7.001 15.636-15.636 15.636s-15.636-7.001-15.636-15.636c0-8.636 7.001-15.636 15.636-15.636s15.636 7.001 15.636 15.636z"></path>
</symbol>

<symbol id="ellipse" viewBox="0 0 32 32">
<path fill="#4c4c4c" style="fill: var(--color1, #4c4c4c); stroke: var(--color2, #eceded)" stroke="#eceded" stroke-linejoin="miter" stroke-linecap="butt" stroke-miterlimit="4" stroke-width="4" d="M30 16c0 7.732-6.268 14-14 14s-14-6.268-14-14c0-7.732 6.268-14 14-14s14 6.268 14 14z"></path>
</symbol>

<symbol id="arrow-right" viewBox="0 0 32 32">
<path d="M19.414 27.414l10-10c0.781-0.781 0.781-2.047 0-2.828l-10-10c-0.781-0.781-2.047-0.781-2.828 0s-0.781 2.047 0 2.828l6.586 6.586h-19.172c-1.105 0-2 0.895-2 2s0.895 2 2 2h19.172l-6.586 6.586c-0.39 0.39-0.586 0.902-0.586 1.414s0.195 1.024 0.586 1.414c0.781 0.781 2.047 0.781 2.828 0z"></path>
</symbol>

<symbol id="arrow-left" viewBox="0 0 32 32">
<path d="M12.586 27.414l-10-10c-0.781-0.781-0.781-2.047 0-2.828l10-10c0.781-0.781 2.047-0.781 2.828 0s0.781 2.047 0 2.828l-6.586 6.586h19.172c1.105 0 2 0.895 2 2s-0.895 2-2 2h-19.172l6.586 6.586c0.39 0.39 0.586 0.902 0.586 1.414s-0.195 1.024-0.586 1.414c-0.781 0.781-2.047 0.781-2.828 0z"></path>
</symbol>

<symbol id="close" viewBox="0 0 32 32">
<path d="M32 3.223l-3.223-3.223-12.777 12.777-12.777-12.777-3.223 3.223 12.777 12.777-12.777 12.777 3.223 3.223 12.777-12.777 12.777 12.777 3.223-3.223-12.777-12.777 12.777-12.777z"></path>
</symbol>

<symbol id="arrow-up" viewBox="0 0 32 32">
<path d="M27.414 12.586l-10-10c-0.781-0.781-2.047-0.781-2.828 0l-10 10c-0.781 0.781-0.781 2.047 0 2.828s2.047 0.781 2.828 0l6.586-6.586v19.172c0 1.105 0.895 2 2 2s2-0.895 2-2v-19.172l6.586 6.586c0.39 0.39 0.902 0.586 1.414 0.586s1.024-0.195 1.414-0.586c0.781-0.781 0.781-2.047 0-2.828z"></path>
</symbol>

<symbol id="icon-flag" viewBox="0 0 32 32">
<path fill="#ffd700" style="fill: var(--color1, #ffd700)" d="M31.832 5.058h-31.589v23.508h31.589v-23.508z"></path>
<path fill="#0057b7" style="fill: var(--color2, #0057b7)" d="M0.243 5.058h31.589v11.754h-31.589v-11.754z"></path>
</symbol>

<symbol id="icon-mastercard" viewBox="0 0 51 32">
<path fill="#ed0006" style="fill: var(--color1, #ed0006)" d="M25.6 26.935c-2.556 2.194-5.873 3.518-9.496 3.518-8.086 0-14.641-6.593-14.641-14.726s6.555-14.726 14.641-14.726c3.624 0 6.94 1.324 9.496 3.518 2.557-2.194 5.873-3.518 9.497-3.518 8.086 0 14.64 6.593 14.64 14.726s-6.555 14.726-14.64 14.726c-3.624 0-6.94-1.324-9.497-3.518z"></path>
<path fill="#f9a000" style="fill: var(--color2, #f9a000)" d="M25.6 26.935c3.148-2.701 5.144-6.72 5.144-11.209s-1.996-8.507-5.144-11.208c2.556-2.194 5.873-3.518 9.497-3.518 8.086 0 14.64 6.593 14.64 14.726s-6.555 14.726-14.64 14.726c-3.624 0-6.94-1.324-9.497-3.518z"></path>
<path fill="#ff5e00" style="fill: var(--color3, #ff5e00)" d="M25.6 26.935c3.148-2.701 5.144-6.72 5.144-11.208s-1.996-8.507-5.144-11.208c-3.148 2.701-5.144 6.72-5.144 11.208s1.996 8.507 5.144 11.208z"></path>
</symbol>

</defs></svg>